<?xml version="1.0" encoding="UTF-8" standalone="no"?>
<svg
   height="48"
   width="48"
   version="1.1"
   id="svg7325"
   xmlns="http://www.w3.org/2000/svg"
   xmlns:svg="http://www.w3.org/2000/svg">
  <defs
     id="defs7329" />
  <path
     d="M 11,40 Q 9.8,40 8.9,39.1 8,38.2 8,37 v -7.15 h 3 V 37 h 26 v -7.15 h 3 V 37 q 0,1.2 -0.9,2.1 Q 38.2,40 37,40 Z m 13,-7.65 -9.65,-9.65 2.15,-2.15 6,6 V 8 h 3 v 18.55 l 6,-6 2.15,2.15 z"
     id="path7323" />
  <path
     style="fill:#2e5ca2;stroke-width:0.124117;stroke-linejoin:bevel;paint-order:stroke markers fill"
     d="m 19.183611,27.475515 -4.788789,-4.789024 1.05344,-1.053439 1.05344,-1.05344 3.010266,3.009893 3.010267,3.009894 V 17.308821 8.018244 H 24 25.477765 v 9.290577 9.290578 l 3.010267,-3.009894 3.010266,-3.009893 1.053441,1.05344 1.053439,1.053439 -4.788788,4.789024 C 26.182556,30.109478 24.01518,32.264538 24,32.264538 c -0.01518,0 -2.182556,-2.15506 -4.816389,-4.789023 z"
     id="path7448" />
  <path
     style="fill:#2e5ca2;stroke-width:0.124117;stroke-linejoin:bevel;paint-order:stroke markers fill"
     d="M 10.386097,39.898886 C 10.198337,39.858093 9.8904693,39.74389 9.701947,39.645101 9.2524005,39.409531 8.5909074,38.748446 8.3558459,38.29983 8.0253276,37.669034 8.0202426,37.597095 8.0191944,33.537058 l -9.504e-4,-3.68073 h 1.4777651 1.4777649 v 3.584949 3.584949 H 24 37.026226 v -3.584949 -3.584949 h 1.477765 1.477765 l -9.52e-4,3.68073 c -0.0011,4.060037 -0.0061,4.131976 -0.336652,4.762772 -0.23459,0.447716 -0.896608,1.109734 -1.344324,1.344324 -0.681986,0.357341 0.236389,0.33604 -14.327196,0.332301 -10.930007,-0.0028 -13.304825,-0.01637 -13.586537,-0.07757 z"
     id="path7450" />
</svg>
