<?xml version="1.0" encoding="UTF-8" standalone="no"?>
<svg
   height="48"
   width="48"
   version="1.1"
   id="svg6631"
   xmlns="http://www.w3.org/2000/svg"
   xmlns:svg="http://www.w3.org/2000/svg">
  <defs
     id="defs6635" />
  <path
     d="m 22.65,34 h 3 V 22 h -3 z M 24,18.3 q 0.7,0 1.175,-0.45 Q 25.65,17.4 25.65,16.7 25.65,16 25.175,15.5 24.7,15 24,15 q -0.7,0 -1.175,0.5 -0.475,0.5 -0.475,1.2 0,0.7 0.475,1.15 Q 23.3,18.3 24,18.3 Z M 24,44 Q 19.9,44 16.25,42.425 12.6,40.85 9.875,38.125 7.15,35.4 5.575,31.75 4,28.1 4,23.95 4,19.85 5.575,16.2 7.15,12.55 9.875,9.85 12.6,7.15 16.25,5.575 19.9,4 24.05,4 q 4.1,0 7.75,1.575 3.65,1.575 6.35,4.275 2.7,2.7 4.275,6.35 Q 44,19.85 44,24 q 0,4.1 -1.575,7.75 -1.575,3.65 -4.275,6.375 -2.7,2.725 -6.35,4.3 Q 28.15,44 24,44 Z m 0.05,-3 q 7.05,0 12,-4.975 Q 41,31.05 41,23.95 41,16.9 36.05,11.95 31.1,7 24,7 16.95,7 11.975,11.95 7,16.9 7,24 7,31.05 11.975,36.025 16.95,41 24.05,41 Z M 24,24 Z"
     id="path6629" />
  <path
     style="fill:#2e5ca2;stroke-width:0.124117;stroke-linejoin:bevel;paint-order:stroke markers fill"
     d="m 22.686431,27.995439 v -5.965792 h 1.477765 1.477765 v 5.965792 5.965792 h -1.477765 -1.477765 z"
     id="path6754" />
  <path
     style="fill:#2e5ca2;stroke-width:0.124117;stroke-linejoin:bevel;paint-order:stroke markers fill"
     d="m 22.823261,43.944962 c -0.12041,-0.012 -0.502166,-0.04849 -0.848347,-0.08109 C 16.774061,43.374086 11.622814,40.537989 8.362669,36.369441 6.001119,33.349872 4.6044969,29.991512 4.1518656,26.244014 4.0325948,25.256528 4.0170853,22.85538 4.123937,21.920182 4.5052677,18.582665 5.5448533,15.725256 7.3896151,12.944128 8.1774742,11.756366 8.7699818,11.036995 9.8487714,9.958433 11.394378,8.413153 12.853975,7.334867 14.77659,6.3179765 c 2.171904,-1.1487413 4.466559,-1.8611296 6.979396,-2.1667918 0.982468,-0.1195077 3.38074,-0.1345124 4.323832,-0.027052 3.081521,0.3511237 5.840869,1.298133 8.413024,2.8873531 4.714109,2.9126384 8.023136,7.6684492 9.097524,13.0751732 0.273522,1.376464 0.353396,2.243133 0.355617,3.858609 0.0021,1.516311 -0.04686,2.144204 -0.270915,3.475485 -0.497086,2.953552 -1.826772,6.009861 -3.708419,8.523873 -2.211546,2.954781 -5.048353,5.153578 -8.483607,6.575606 -1.553273,0.642979 -3.382068,1.113675 -5.129564,1.32025 -0.696361,0.08232 -3.05281,0.152059 -3.530217,0.10448 z m 2.736602,-2.980845 c 3.981531,-0.342018 7.32644,-1.849816 10.159702,-4.579728 2.984852,-2.875975 4.613279,-6.059698 5.172651,-10.113009 0.137961,-0.999685 0.137842,-3.641498 -2.19e-4,-4.624858 -0.28385,-2.021935 -0.72493,-3.50436 -1.538924,-5.172178 C 37.622421,12.92834 34.430316,9.8769157 30.819186,8.3165488 29.490232,7.7423088 27.972061,7.3340929 26.326112,7.1084214 25.324729,6.9711246 22.679729,6.9696267 21.701254,7.1058022 c -3.810059,0.5302507 -6.861209,2.018821 -9.588509,4.6779648 -2.8783241,2.806394 -4.4606801,5.933272 -5.0048937,9.890121 -0.1379072,1.002691 -0.1393288,3.646099 -0.00249,4.624858 0.2806295,2.007199 0.7412316,3.541189 1.5694539,5.22691 1.4706868,2.99336 4.0153678,5.667262 7.0451978,7.402957 2.004445,1.148284 4.561142,1.899809 6.993781,2.055775 0.664642,0.04261 2.245049,0.03136 2.846066,-0.02027 z"
     id="path6756" />
  <path
     style="fill:#2e5ca2;stroke-width:0.124117;stroke-linejoin:bevel;paint-order:stroke markers fill"
     d="m 23.43615,18.177343 c -0.744349,-0.277081 -1.16825,-0.999111 -1.028956,-1.752619 0.07802,-0.422042 0.228624,-0.688345 0.55549,-0.982225 0.61482,-0.552777 1.457579,-0.554784 2.069151,-0.0049 0.392312,0.352723 0.572925,0.745187 0.573881,1.247022 0.0012,0.627202 -0.264952,1.088797 -0.793715,1.376586 -0.238127,0.129605 -0.369988,0.161416 -0.729225,0.17592 -0.284531,0.01149 -0.511611,-0.0095 -0.646626,-0.05975 z"
     id="path6758" />
</svg>
