<?xml version="1.0" encoding="UTF-8" standalone="no"?>
<svg
   height="48"
   viewBox="0 96 960 960"
   width="48"
   version="1.1"
   id="svg6821"
   xmlns="http://www.w3.org/2000/svg"
   xmlns:svg="http://www.w3.org/2000/svg">
  <defs
     id="defs6825" />
  <path
     d="M 854,816 508,576 854,336 Z M 452,816 106,576 452,336 Z M 392,576 Z m 402,0 z M 392,701 V 451 L 211,576 Z m 402,0 V 451 L 613,576 Z"
     id="path6819" />
  <path
     style="fill:#2e5ca2;stroke-width:2.48234;stroke-linejoin:bevel;paint-order:stroke markers fill"
     d="M 372.17788,759.78478 C 328.8301,729.7188 251.62842,676.19064 200.61858,640.83334 149.60874,605.47602 107.87342,576.30102 107.87342,576 c 0,-0.301 41.73532,-29.47602 92.74516,-64.83334 51.00984,-35.3573 128.21152,-88.88546 171.5593,-118.95144 l 78.81414,-54.66544 0.2786,119.2251 c 0.154,65.57382 0.154,172.87642 0,238.45024 l -0.2786,119.2251 z m 19.98608,-246.63638 -0.2826,-62.85158 -90.30788,62.3664 c -49.66926,34.30154 -90.3078,62.80308 -90.3078,63.33678 0,0.5338 40.63854,29.03524 90.30786,63.33678 l 90.30788,62.3664 0.2826,-62.85158 c 0.156,-34.56838 0.156,-91.13482 0,-125.7032 z"
     id="path6944" />
  <path
     style="fill:#2e5ca2;stroke-width:2.48234;stroke-linejoin:bevel;paint-order:stroke markers fill"
     d="M 681.19676,695.40812 C 586.8561,630.03468 509.6683,576.30102 509.6683,576 c 0,-0.301 77.1878,-54.03468 171.52846,-119.40812 L 852.7252,337.7311 l 0.2786,119.13444 c 0.154,65.52396 0.154,172.74496 0,238.26892 l -0.2786,119.13444 z m 112.70038,-182.17898 -0.2826,-62.77086 -90.55558,62.4972 c -49.8055,34.37346 -90.55552,62.7435 -90.55552,63.04452 0,0.301 40.75002,28.67106 90.55558,63.04452 l 90.55558,62.4972 0.2826,-62.77086 c 0.156,-34.52398 0.156,-91.01774 0,-125.54172 z"
     id="path6946" />
</svg>
