<?xml version="1.0" encoding="UTF-8" standalone="no"?>
<svg
   height="48"
   viewBox="0 96 960 960"
   width="48"
   version="1.1"
   id="svg6982"
   xmlns="http://www.w3.org/2000/svg"
   xmlns:svg="http://www.w3.org/2000/svg">
  <defs
     id="defs6986" />
  <path
     d="M 388,976 368,850 q -19,-7 -40,-19 -21,-12 -37,-25 L 173,860 80,696 188,617 q -2,-9 -2.5,-20.5 Q 185,585 185,576 q 0,-9 0.5,-20.5 Q 186,544 188,535 L 80,456 173,292 291,346 q 16,-13 37,-25 21,-12 40,-18 l 20,-127 h 184 l 20,126 q 19,7 40.5,18.5 Q 654,332 669,346 l 118,-54 93,164 -108,77 q 2,10 2.5,21.5 0.5,11.5 0.5,21.5 0,10 -0.5,21 -0.5,11 -2.5,21 L 880,696 787,860 669,806 Q 653,819 632.5,831.5 612,844 592,850 l -20,126 z m 92,-270 q 54,0 92,-38 38,-38 38,-92 0,-54 -38,-92 -38,-38 -92,-38 -54,0 -92,38 -38,38 -38,92 0,54 38,92 38,38 92,38 z m 0,-60 Q 451,646 430.5,625.5 410,605 410,576 410,547 430.5,526.5 451,506 480,506 q 29,0 49.5,20.5 Q 550,547 550,576 550,605 529.5,625.5 509,646 480,646 Z m 0,-70 z m -44,340 h 88 l 14,-112 q 33,-8 62.5,-25 29.5,-17 53.5,-41 l 106,46 40,-72 -94,-69 q 4,-17 6.5,-33.5 Q 715,593 715,576 715,559 713,542.5 711,526 706,509 l 94,-69 -40,-72 -106,46 Q 631,388 602,370.5 573,353 538,348 L 524,236 h -88 l -14,112 q -34,7 -63.5,24 -29.5,17 -52.5,42 l -106,-46 -40,72 94,69 q -4,17 -6.5,33.5 -2.5,16.5 -2.5,33.5 0,17 2.5,33.5 2.5,16.5 6.5,33.5 l -94,69 40,72 106,-46 q 24,24 53.5,41 29.5,17 62.5,25 z"
     id="path6980" />
  <path
     style="fill:#2e5ca2;stroke-width:2.48234;stroke-linejoin:bevel;paint-order:stroke markers fill"
     d="m 378.91394,914.51768 c -5.26878,-33.56444 -9.99844,-62.04864 -10.51032,-63.29828 -0.5416,-1.3222 -3.15054,-3.10654 -6.24072,-4.26826 -15.60724,-5.8673 -45.89628,-22.94044 -62.55774,-35.26218 -4.65206,-3.44036 -8.89018,-5.7958 -9.91872,-5.51258 -0.9878,0.272 -27.22392,12.1375 -58.30262,26.36774 -31.0787,14.23028 -56.95822,25.87322 -57.51006,25.87322 -0.947,0 -91.424024,-158.51366 -92.086976,-161.33424 -0.1712,-0.7284 23.850816,-18.98922 53.382266,-40.5796 39.5379,-28.90608 53.54868,-39.71438 53.14407,-40.9968 -3.45331,-10.9453 -3.45331,-68.0681 0,-79.0134 0.40462,-1.2824 -13.60617,-12.09072 -53.14407,-40.9968 -29.53145,-21.59038 -53.55347,-39.8582 -53.382266,-40.59516 0.65265,-2.80942 91.138496,-161.31867 92.089616,-161.31867 0.55038,0 26.42872,11.64293 57.50742,25.87321 31.0787,14.23024 57.3041,26.09292 58.27868,26.36148 1.0106,0.2784 5.94976,-2.55612 11.49374,-6.59608 18.43318,-13.43246 48.33286,-29.80134 61.56214,-33.70282 2.93024,-0.8642 5.12092,-2.27664 5.67824,-3.66112 0.499,-1.2398 5.2307,-29.96224 10.51472,-63.82769 l 9.60728,-61.57355 h 91.49392 91.4939 l 9.57962,61.02623 c 5.26878,33.56442 9.98184,62.01139 10.47342,63.21551 0.5712,1.399 4.20718,3.52702 10.07196,5.89486 21.98878,8.8778 49.5408,24.61382 61.34154,35.03456 2.80164,2.474 5.58772,4.49816 6.1913,4.49816 0.6036,0 26.949,-11.82212 58.54536,-26.27138 31.59634,-14.44926 57.89594,-26.27137 58.44356,-26.27137 0.9494,0 91.40822,158.53219 92.06364,161.34481 0.174,0.7432 -23.83958,18.54428 -53.36172,39.55792 -38.19834,27.18928 -53.5315,38.69012 -53.17338,39.8834 3.48738,11.6203 3.5346,66.6053 0.07,81.66596 -0.4436,1.9282 7.54826,8.095 53.12582,40.99388 29.50636,21.29832 53.5076,39.3252 53.33608,40.05972 -0.6628,2.83786 -91.12088,161.32898 -92.07792,161.32898 -0.5572,0 -26.83868,-11.82212 -58.40348,-26.27138 -31.56478,-14.44926 -57.8535,-26.27138 -58.41936,-26.27138 -0.5658,0 -5.63816,3.4192 -11.27174,7.59824 -20.38846,15.12436 -45.21588,29.1637 -59.58166,33.69212 -3.82632,1.2062 -6.3059,2.6844 -6.88658,4.10564 -0.499,1.2214 -5.21824,29.68266 -10.48702,63.2471 l -9.57962,61.02622 H 480 388.49356 Z m 152.60894,-54.07932 7.0404,-55.99494 8.75714,-2.41486 c 21.83184,-6.02038 47.84402,-18.05142 67.60518,-31.26842 11.6416,-7.78634 27.84932,-20.69378 34.1449,-27.1922 2.37988,-2.45656 4.66872,-4.46646 5.08632,-4.46646 0.4176,0 24.03676,10.09806 52.48704,22.44014 28.45026,12.34208 52.26904,22.44014 52.93058,22.44014 1.3622,0 41.24614,-71.21378 40.53148,-72.3701 -0.2542,-0.4114 -21.4275,-16.13212 -47.0516,-34.93486 -30.5517,-22.41856 -46.39464,-34.69398 -46.02386,-35.66022 1.1258,-2.93404 5.01956,-24.64706 6.64948,-37.08086 3.26636,-24.91704 1.4758,-60.53748 -4.2291,-84.13582 l -2.56268,-10.60042 46.37772,-34.03152 c 25.50774,-18.71734 46.58576,-34.36818 46.84004,-34.77962 0.7146,-1.1564 -39.16922,-72.3701 -40.53148,-72.3701 -0.6616,0 -24.48032,10.09806 -52.93058,22.44014 -28.45028,12.34208 -51.79996,22.43834 -51.8882,22.43614 -0.088,-0.002 -5.08634,-4.8177 -11.10686,-10.7011 -28.79572,-28.13984 -60.35576,-45.77274 -94.35868,-52.71908 -5.73016,-1.1706 -10.5477,-2.27982 -10.70566,-2.46496 -0.158,-0.186 -3.3944,-25.3355 -7.1921,-55.88965 l -6.90492,-55.55303 h -44.49088 -44.4909 l -6.95504,55.83679 -6.95504,55.83679 -4.458,1.1392 c -30.6315,7.82828 -54.35206,18.56952 -77.2516,34.98136 -10.96486,7.85842 -28.34024,22.91512 -31.24398,27.07464 -0.9456,1.3546 -2.1331,2.46294 -2.63874,2.46294 -0.5056,0 -24.19684,-10.09806 -52.64712,-22.44014 -28.45026,-12.34208 -52.26904,-22.44014 -52.93058,-22.44014 -0.66156,0 -10.17057,16.13228 -21.13115,35.8495 -18.65621,33.56104 -19.80911,35.96274 -18.06063,37.62378 1.02724,0.9758 22.21925,16.66876 47.09336,34.87312 30.13368,22.05364 45.034,33.5983 44.65132,34.59554 -0.3158,0.8232 -1.568,6.6457 -2.78246,12.93894 -7.37104,38.19586 -7.37104,66.0059 0,104.20176 1.2144,6.29324 2.46658,12.11576 2.78246,12.93894 0.3826,0.9972 -14.51764,12.5419 -44.65132,34.59554 -24.87411,18.20436 -46.06613,33.89726 -47.09336,34.87312 -1.74848,1.661 -0.59558,4.06274 18.06063,37.62378 10.96058,19.71722 20.49288,35.8495 21.18289,35.8495 0.69,0 24.50942,-10.09806 52.93206,-22.44014 28.42262,-12.34208 52.0263,-22.44014 52.45264,-22.44014 0.4264,0 2.22194,1.5204 3.99022,3.37886 6.72776,7.07048 21.51802,18.86322 34.69152,27.66058 22.0733,14.74076 45.19352,25.56102 68.13584,31.88764 l 8.75714,2.41486 7.0404,55.99494 7.0404,55.99494 H 480 524.48248 Z"
     id="path7105" />
  <path
     style="fill:#2e5ca2;stroke-width:2.48234;stroke-linejoin:bevel;paint-order:stroke markers fill"
     d="m 456.92686,703.53628 c -26.6562,-5.0434 -50.0422,-17.46396 -68.87668,-36.58116 -24.8322,-25.20492 -37.2178,-55.4736 -37.2178,-90.95512 0,-35.79604 12.56956,-66.23266 37.75226,-91.41536 25.1827,-25.1827 55.61932,-37.75226 91.41536,-37.75226 35.22064,0 65.57636,12.28776 90.04294,36.44868 21.067,20.80382 32.66752,42.76298 37.62648,71.22492 3.71492,21.32174 0.599,50.3662 -7.574,70.60062 -12.17936,30.15306 -40.83576,58.80946 -70.98882,70.98882 -14.87544,6.00846 -26.52916,8.2004 -45.82268,8.61874 -12.59588,0.2732 -20.5719,-0.084 -26.35706,-1.1778 z m 40.97672,-59.20992 c 21.33828,-5.49068 39.74914,-21.84374 47.96314,-42.6023 3.07712,-7.77652 3.51944,-10.2942 3.94998,-22.48362 0.5486,-15.53116 -0.8838,-23.3743 -6.28938,-34.4377 -7.26568,-14.8704 -22.13084,-28.50908 -37.80326,-34.6842 -7.76042,-3.0577 -10.31944,-3.50558 -22.48362,-3.93524 -15.53116,-0.5486 -23.3743,0.8838 -34.4377,6.28938 -14.78536,7.22412 -28.40908,22.03896 -34.7639,37.80326 -3.44858,8.55486 -3.53012,9.14904 -3.53012,25.72406 0,16.59712 0.078,17.1578 3.54484,25.72406 8.31536,20.54218 26.65932,37.00872 47.45994,42.60268 8.11866,2.18336 27.90418,2.18316 36.39008,-3.8e-4 z"
     id="path7107" />
</svg>
