<?xml version="1.0" encoding="UTF-8" standalone="no"?>
<svg
   height="48"
   viewBox="0 96 960 960"
   width="48"
   version="1.1"
   id="svg7159"
   xmlns="http://www.w3.org/2000/svg"
   xmlns:svg="http://www.w3.org/2000/svg">
  <defs
     id="defs7163" />
  <path
     d="M 89,807 40,771 228,471 347.571,611 507,353 616,515 q -16,2 -31,6.5 -15,4.5 -30,10.5 L 510,463 357.443,712 236,571 Z M 877,1016 743,882 q -21,15 -45.5,23 -24.5,8 -50.5,8 -70.833,0 -120.417,-49.618 Q 477,813.765 477,742.882 477,672 526.618,622.5 576.235,573 647.118,573 718,573 767.5,622.583 817,672.167 817,743 q 0,26 -8.5,50.5 Q 800,818 786,840.448 L 920,973 Z M 646.859,853 Q 693,853 725,821.141 q 32,-31.859 32,-78 Q 757,697 725.141,665 693.282,633 647.141,633 601,633 569,664.859 q -32,31.859 -32,78 0,46.141 31.859,78.141 31.859,32 78,32 z M 721,525 q -15,-6 -31,-8 -16,-2 -33,-4 l 214,-337 49,36 z"
     id="path7157" />
  <path
     style="fill:#2e5ca2;stroke-width:2.48234;stroke-linejoin:bevel;paint-order:stroke markers fill"
     d="M 65.098376,788.52238 C 52.172262,778.97868 41.688446,770.69782 41.801008,770.1205 42.139322,768.38526 227.05424,473.679 228.00318,473.36268 c 0.4826,-0.16 27.38642,30.74814 59.7863,68.68668 32.39988,37.93852 59.28116,68.97914 59.73622,68.97914 0.455,0 36.4487,-57.64864 79.98594,-128.10808 63.26396,-102.3846 79.42824,-127.8263 80.5013,-126.70468 1.0848,1.1338 103.36024,152.8054 105.8248,156.93508 0.4632,0.7762 -3.53876,2.0191 -11.55888,3.58972 -6.7471,1.3214 -20.14888,5.05524 -29.78172,8.29762 -9.63282,3.2424 -17.5671,5.81402 -17.6317,5.71476 -0.064,-0.1 -10.12804,-15.58392 -22.36316,-34.4103 -12.23512,-18.82638 -22.60502,-33.85032 -23.0442,-33.38654 -0.4392,0.4638 -34.40346,55.76684 -75.47616,122.89568 -41.07268,67.12886 -75.22918,122.61788 -75.90332,123.30894 -0.913,0.936 -16.57356,-16.5849 -61.39534,-68.68872 -33.0933,-38.46984 -60.43196,-69.93492 -60.75256,-69.92238 -0.3206,0.0126 -33.52744,52.9658 -73.79295,117.6739 -40.26551,64.7081 -73.28367,117.65108 -73.373684,117.65108 -0.09,0 -10.739576,-7.8085 -23.66569,-17.3522 z"
     id="path7282" />
  <path
     style="fill:#2e5ca2;stroke-width:2.48234;stroke-linejoin:bevel;paint-order:stroke markers fill"
     d="m 809.93376,948.07966 -66.86216,-66.86216 -7.97338,5.15794 c -15.99352,10.34616 -36.77034,18.77084 -57.10534,23.15536 -14.22172,3.0664 -51.17784,2.78488 -66.20256,-0.5044 -29.8625,-6.53746 -54.74064,-19.06234 -76.30658,-38.41646 -29.09684,-26.11264 -46.76906,-56.03956 -54.5281,-92.34032 -3.19898,-14.96652 -3.98102,-44.6747 -1.6006,-60.80354 5.5258,-37.4403 20.84224,-67.36964 48.43568,-94.64648 22.91784,-22.65488 47.2331,-36.69882 76.30962,-44.07468 30.04982,-7.62276 67.72264,-6.33902 97.32556,3.3165 47.9152,15.62838 91.03696,58.62112 106.38672,106.0684 6.14284,18.98806 7.57672,28.96794 7.63798,53.16084 0.062,24.61634 -0.964,31.85698 -7.18988,50.7212 -3.52584,10.68326 -14.1685,33.71834 -19.79182,42.83752 l -3.39542,5.50628 66.92902,66.24598 66.92904,66.246 -21.06782,21.04704 -21.06782,21.04702 z M 667.18358,851.69388 c 11.02372,-1.5804 26.94506,-7.4042 37.66508,-13.77738 12.02234,-7.14742 29.08894,-24.12424 36.6035,-36.41094 11.17678,-18.2746 15.75044,-35.51746 15.67622,-59.09972 -0.11,-34.80052 -13.193,-62.94444 -39.51946,-85.01044 -14.7166,-12.33502 -32.74102,-20.53956 -51.52948,-23.45576 -12.14376,-1.8848 -37.78494,-0.7534 -48.70202,2.14896 -18.18444,4.8345 -35.18088,14.86372 -49.25884,29.06652 -13.69626,13.81776 -21.94128,27.67142 -27.43826,46.10312 -4.13632,13.86938 -4.99334,39.88296 -1.819,55.21436 4.7773,23.07364 16.07902,42.88818 33.43784,58.62424 25.7823,23.37208 56.77692,32.06018 94.88446,26.59704 z"
     id="path7284" />
  <path
     style="fill:#2e5ca2;stroke-width:2.48234;stroke-linejoin:bevel;paint-order:stroke markers fill"
     d="m 718.56416,523.45002 c -4.43168,-2.50296 -19.84792,-5.76408 -38.64258,-8.17434 -11.3567,-1.4564 -20.81796,-2.81746 -21.02504,-3.02452 -0.393,-0.393 210.05658,-332.20999 211.8122,-333.9656 0.6076,-0.60754 9.99168,5.5879 23.80162,15.71387 12.53926,9.19426 23.18944,17.05884 23.66708,17.47684 0.658,0.57578 -193.89732,308.54919 -197.21676,312.18645 -0.3778,0.414 -1.4562,0.3184 -2.39652,-0.2128 z"
     id="path7286" />
</svg>
