<?xml version="1.0" encoding="UTF-8" standalone="no"?>
<svg
   height="48"
   width="48"
   version="1.1"
   id="svg7619"
   xmlns="http://www.w3.org/2000/svg"
   xmlns:svg="http://www.w3.org/2000/svg">
  <defs
     id="defs7623" />
  <path
     d="M 11,40 Q 9.8,40 8.9,39.1 8,38.2 8,37 v -7.15 h 3 V 37 h 26 v -7.15 h 3 V 37 q 0,1.2 -0.9,2.1 Q 38.2,40 37,40 Z M 22.5,32.35 V 13.8 l -6,6 L 14.35,17.65 24,8 l 9.65,9.65 -2.15,2.15 -6,-6 v 18.55 z"
     id="path7617" />
  <path
     style="fill:#2e5ca2;stroke-width:0.124117;stroke-linejoin:bevel;paint-order:stroke markers fill"
     d="m 22.522235,23.028693 v -9.290577 l -3.010267,3.009893 -3.010266,3.009893 -1.05348,-1.053479 -1.053479,-1.053478 4.802629,-4.802629 L 24,8.045688 l 4.802628,4.802628 4.802628,4.802629 -1.053479,1.053478 -1.053479,1.053479 -3.010266,-3.009893 -3.010267,-3.009893 v 9.290577 9.290577 H 24 22.522235 Z"
     id="path7742" />
  <path
     style="fill:#2e5ca2;stroke-width:0.124117;stroke-linejoin:bevel;paint-order:stroke markers fill"
     d="M 10.386097,39.898886 C 10.198337,39.858093 9.8904693,39.74389 9.701947,39.645101 9.2524005,39.409531 8.5909074,38.748446 8.3558459,38.29983 8.0253276,37.669034 8.0202426,37.597095 8.0191944,33.537058 l -9.504e-4,-3.68073 h 1.4777651 1.4777649 v 3.584949 3.584949 H 24 37.026226 v -3.584949 -3.584949 h 1.477765 1.477765 l -9.52e-4,3.68073 c -0.0011,4.060037 -0.0061,4.131976 -0.336652,4.762772 -0.23459,0.447716 -0.896608,1.109734 -1.344324,1.344324 -0.681986,0.357341 0.236389,0.33604 -14.327196,0.332301 -10.930007,-0.0028 -13.304825,-0.01637 -13.586537,-0.07757 z"
     id="path7744" />
</svg>
